<svg version="1.1" id="Слой_1" xmlns="http://www.w3.org/2000/svg" xmlns:xlink="http://www.w3.org/1999/xlink" x="0px" y="0px"
	 viewBox="0 0 208 47" style="enable-background:new 0 0 208 47;" xml:space="preserve"><style type="text/css">
	.st0{fill:#FFFFFF;}
	.st1{fill:#FFFFFF;stroke:#FFFFFF;stroke-width:0.1;stroke-miterlimit:10;}
	.st2{fill:url(#SVGID_1_);}
	.st3{fill:url(#SVGID_2_);}
	.st4{fill:url(#SVGID_3_);}</style><g><polygon class="st0" points="51,11.4 55.8,11.4 55.8,23.9 58.4,23.9 58.4,11.4 63.2,11.4 63.2,9 51,9 	"/><polygon class="st0" points="71.1,17.6 78.7,17.6 78.7,15.2 71.1,15.2 71.1,11.3 79.6,11.3 79.6,9 68.5,9 68.5,23.9 79.7,23.9 
		79.7,21.6 71.1,21.6 	"/><path class="st0" d="M92.4,17.9h3.8v2.8c-0.9,0.7-2.2,1.1-3.6,1.1c-3.1,0-5.1-2.3-5.1-5.3c0-2.9,2.1-5.3,4.9-5.3
		c1.9,0,3,0.6,4.2,1.6l1.7-2c-1.5-1.3-3.1-2-5.8-2c-4.5,0-7.7,3.6-7.7,7.7c0,4.4,3.1,7.7,7.8,7.7c2.7,0,4.8-1.1,6.2-2.3v-6.3h-6.4
		V17.9z"/><path class="st0" d="M113.4,18.3c2.1-0.6,3.6-2.1,3.6-4.5c0-2.9-2.1-4.8-5.6-4.8h-6.7v15h2.6v-5.2h3.3l3.7,5.2h3.1L113.4,18.3z
		 M107.4,16.4v-5h3.8c1.9,0,3.1,0.9,3.1,2.5c0,1.6-1.2,2.5-3.1,2.5H107.4z"/><path class="st0" d="M130.5,8.9h-2.4l-6.6,15.1h2.7l1.5-3.6h7.1l1.5,3.6h2.8L130.5,8.9z M126.7,18l2.6-6l2.6,6H126.7z"/><polygon class="st0" points="151.4,9 139.3,9 139.3,11.4 144,11.4 144,23.9 146.7,23.9 146.7,11.4 151.4,11.4 	"/><polygon class="st0" points="168,21.6 159.4,21.6 159.4,17.6 166.9,17.6 166.9,15.2 159.4,15.2 159.4,11.3 167.9,11.3 167.9,9 
		156.7,9 156.7,23.9 168,23.9 	"/><path class="st0" d="M180.7,21.8c-2.9,0-4.9-2.4-4.9-5.3c0-3,2.1-5.3,4.9-5.3c1.7,0,3,0.7,4.2,1.9l1.7-1.9
		c-1.4-1.4-3.1-2.3-5.9-2.3c-4.5,0-7.7,3.5-7.7,7.7c0,4.3,3.3,7.7,7.6,7.7c2.8,0,4.5-1,6.1-2.7l-1.7-1.7
		C183.7,21,182.5,21.8,180.7,21.8z"/><polygon class="st0" points="201.8,15.2 194.6,15.2 194.6,9 192,9 192,23.9 194.6,23.9 194.6,17.6 201.8,17.6 201.8,23.9 
		204.4,23.9 204.4,9 201.8,9 	"/><g><path class="st1" d="M54.3,36.6c-0.4,0-0.8,0.1-1.2,0.3l-0.3-0.7c0.5-0.2,1-0.3,1.5-0.3c0.7,0,1.3,0.2,1.7,0.7
			c0.4,0.4,0.6,1.1,0.6,1.9c0,0.8-0.2,1.5-0.6,1.9c-0.4,0.4-1,0.7-1.8,0.7c-0.5,0-1-0.1-1.4-0.2v-0.7c0.2,0.1,0.4,0.1,0.7,0.2
			c0.2,0,0.4,0.1,0.7,0.1c0.5,0,0.9-0.1,1.2-0.4c0.3-0.3,0.4-0.7,0.4-1.2h-2.3V38h2.3c0-0.5-0.2-0.8-0.4-1.1S54.7,36.6,54.3,36.6z"
			/><path class="st1" d="M63.3,40.9h-1l-2.1-2.5v2.5h-0.8v-5h0.8v2.4l2-2.4h0.9l-2,2.4L63.3,40.9z"/><path class="st1" d="M67.8,36.6c-0.5,0-0.8,0.2-1.1,0.5c-0.3,0.3-0.4,0.8-0.4,1.4c0,0.6,0.1,1.1,0.4,1.4s0.6,0.5,1.1,0.5
			c0.2,0,0.4,0,0.6-0.1c0.2,0,0.4-0.1,0.6-0.2v0.7c-0.4,0.1-0.8,0.2-1.3,0.2c-0.7,0-1.3-0.2-1.7-0.7c-0.4-0.4-0.6-1.1-0.6-1.9
			c0-0.5,0.1-1,0.3-1.4s0.5-0.7,0.8-0.9s0.8-0.3,1.3-0.3c0.5,0,1,0.1,1.4,0.3l-0.3,0.7c-0.2-0.1-0.3-0.1-0.5-0.2
			C68.2,36.6,68,36.6,67.8,36.6z"/><path class="st1" d="M75.7,40.9h-0.8v-4.3h-2.2v4.3h-0.8v-5h3.8V40.9z"/><path class="st1" d="M81.6,40.9h-2.8v-5h2.8v0.7h-2V38h1.9v0.7h-1.9v1.6h2V40.9z"/><path class="st1" d="M87.7,37.4c0,0.5-0.2,0.9-0.5,1.2S86.3,39,85.7,39h-0.5v1.9h-0.8v-5h1.4c0.6,0,1.1,0.1,1.4,0.4
			C87.5,36.6,87.7,36.9,87.7,37.4z M85.2,38.4h0.4c0.4,0,0.7-0.1,0.9-0.2c0.2-0.1,0.3-0.4,0.3-0.7c0-0.3-0.1-0.5-0.3-0.6
			s-0.4-0.2-0.8-0.2h-0.6V38.4z"/><path class="st1" d="M92.1,40.9h-0.8v-4.3h-1.5v-0.7h3.8v0.7h-1.5V40.9z"/><path class="st1" d="M99.4,39.4c0,0.5-0.2,0.9-0.5,1.1c-0.3,0.3-0.8,0.4-1.4,0.4h-1.4v-5h0.8v2h0.6c0.6,0,1.1,0.1,1.4,0.4
			S99.4,38.9,99.4,39.4z M96.9,40.2h0.6c0.4,0,0.6-0.1,0.8-0.2c0.2-0.1,0.3-0.3,0.3-0.6c0-0.3-0.1-0.5-0.3-0.6
			c-0.2-0.1-0.5-0.2-0.9-0.2h-0.5V40.2z M101,40.9h-0.8v-5h0.8V40.9z"/><path class="st1" d="M107.6,35.9h1.5c0.7,0,1.2,0.1,1.5,0.3s0.5,0.5,0.5,1c0,0.3-0.1,0.5-0.2,0.7s-0.4,0.3-0.6,0.4v0
			c0.4,0.1,0.6,0.2,0.8,0.4c0.2,0.2,0.2,0.5,0.2,0.8c0,0.4-0.2,0.8-0.5,1.1c-0.3,0.3-0.7,0.4-1.3,0.4h-1.8V35.9z M108.4,38h0.8
			c0.3,0,0.6-0.1,0.7-0.2c0.2-0.1,0.2-0.3,0.2-0.6c0-0.2-0.1-0.4-0.3-0.5s-0.4-0.2-0.8-0.2h-0.7V38z M108.4,38.6v1.6h0.9
			c0.3,0,0.6-0.1,0.8-0.2c0.2-0.1,0.3-0.3,0.3-0.6c0-0.3-0.1-0.5-0.3-0.6s-0.4-0.2-0.8-0.2H108.4z"/><path class="st1" d="M120.6,40.9l-0.5-1.4h-1.9l-0.5,1.4h-0.9l1.9-5h0.9l1.9,5H120.6z M119.9,38.8l-0.5-1.4c0-0.1-0.1-0.2-0.1-0.4
			s-0.1-0.3-0.1-0.4c-0.1,0.3-0.2,0.6-0.3,0.9l-0.5,1.3H119.9z"/><path class="st1" d="M126.7,35.9h0.8l-1.8,5h-0.9l-1.7-5h0.8l1,3.1c0.1,0.1,0.1,0.3,0.2,0.6c0.1,0.2,0.1,0.4,0.1,0.5
			c0-0.2,0.1-0.4,0.1-0.6c0.1-0.2,0.1-0.4,0.2-0.5L126.7,35.9z"/><path class="st1" d="M132.9,40.2h0.4c0.3-0.6,0.6-1.3,0.8-2s0.4-1.5,0.4-2.3h2.6v4.3h0.6v2.1h-0.8v-1.4h-3.3v1.4h-0.8V40.2z
			 M135.2,36.6c0,0.5-0.2,1.1-0.4,1.8c-0.2,0.7-0.4,1.3-0.7,1.8h2.2v-3.6H135.2z"/><path class="st1" d="M140.3,35.9h0.7v2.6c0,0.3,0,0.5,0,0.8c0,0.3,0,0.5,0,0.6h0l2.6-4h1v5h-0.8v-2.6c0-0.4,0-0.9,0.1-1.4h0
			l-2.6,4h-1V35.9z"/><path class="st1" d="M149.7,36.6c-0.5,0-0.8,0.2-1.1,0.5c-0.3,0.3-0.4,0.8-0.4,1.4c0,0.6,0.1,1.1,0.4,1.4s0.6,0.5,1.1,0.5
			c0.2,0,0.4,0,0.6-0.1c0.2,0,0.4-0.1,0.6-0.2v0.7c-0.4,0.1-0.8,0.2-1.3,0.2c-0.7,0-1.3-0.2-1.7-0.7c-0.4-0.4-0.6-1.1-0.6-1.9
			c0-0.5,0.1-1,0.3-1.4s0.5-0.7,0.8-0.9s0.8-0.3,1.3-0.3c0.5,0,1,0.1,1.4,0.3l-0.3,0.7c-0.2-0.1-0.3-0.1-0.5-0.2
			C150.1,36.6,149.9,36.6,149.7,36.6z"/><path class="st1" d="M155.5,40.9h-0.8v-4.3h-1.5v-0.7h3.8v0.7h-1.5V40.9z"/><path class="st1" d="M162.7,37.4c0,0.5-0.2,0.9-0.5,1.2s-0.8,0.4-1.5,0.4h-0.5v1.9h-0.8v-5h1.4c0.6,0,1.1,0.1,1.4,0.4
			C162.6,36.6,162.7,36.9,162.7,37.4z M160.2,38.4h0.4c0.4,0,0.7-0.1,0.9-0.2c0.2-0.1,0.3-0.4,0.3-0.7c0-0.3-0.1-0.5-0.3-0.6
			s-0.4-0.2-0.8-0.2h-0.6V38.4z"/><path class="st1" d="M165.5,35.9h0.7v2.6c0,0.3,0,0.5,0,0.8c0,0.3,0,0.5,0,0.6h0l2.6-4h1v5H169v-2.6c0-0.4,0-0.9,0.1-1.4h0l-2.6,4
			h-1V35.9z"/><path class="st1" d="M176.1,39.4c0,1-0.6,1.5-1.9,1.5h-1.5v-5h3v0.7h-2.2V38h0.6C175.5,38,176.1,38.4,176.1,39.4z M173.6,40.2h0.6
			c0.4,0,0.7-0.1,0.9-0.2c0.2-0.1,0.3-0.3,0.3-0.6c0-0.3-0.1-0.5-0.3-0.6c-0.2-0.1-0.5-0.2-1-0.2h-0.5V40.2z"/><path class="st1" d="M182.7,35.9l-1.6,3.6c-0.2,0.4-0.4,0.8-0.5,0.9c-0.2,0.2-0.3,0.3-0.6,0.4s-0.5,0.1-0.8,0.1
			c-0.3,0-0.5,0-0.7-0.1v-0.7c0.2,0.1,0.5,0.1,0.7,0.1c0.2,0,0.4-0.1,0.5-0.2c0.1-0.1,0.3-0.3,0.4-0.5l-1.8-3.7h0.9l1.2,2.5
			c0.1,0.2,0.2,0.4,0.2,0.5h0c0-0.1,0-0.2,0.1-0.3l1.1-2.7H182.7z"/><path class="st1" d="M188.9,40.2h0.7v2.1h-0.8v-1.4h-3.7v-5h0.8v4.3h2.2v-4.3h0.8V40.2z"/><path class="st1" d="M192.1,35.9h0.7v2.6c0,0.3,0,0.5,0,0.8c0,0.3,0,0.5,0,0.6h0l2.6-4h1v5h-0.8v-2.6c0-0.4,0-0.9,0.1-1.4h0
			l-2.6,4h-1V35.9z"/><path class="st1" d="M199.4,35.9h0.7v2.6c0,0.3,0,0.5,0,0.8c0,0.3,0,0.5,0,0.6h0l2.6-4h1v5h-0.8v-2.6c0-0.4,0-0.9,0.1-1.4h0
			l-2.6,4h-1V35.9z"/></g></g><g><linearGradient id="SVGID_1_" gradientUnits="userSpaceOnUse" x1="0.4821" y1="8.9549" x2="46.2687" y2="8.9549"><stop  offset="0" style="stop-color:#48E7BF"/><stop  offset="1" style="stop-color:#5427E6"/></linearGradient><polygon class="st2" points="46.3,1.2 31,16.7 0.5,16.7 15.7,1.2 	"/><linearGradient id="SVGID_2_" gradientUnits="userSpaceOnUse" x1="27.6135" y1="46.9568" x2="27.6135" y2="1.1702"><stop  offset="0" style="stop-color:#5427E6"/><stop  offset="1" style="stop-color:#48E7BF"/></linearGradient><polygon class="st3" points="35.4,1.2 19.8,16.4 19.8,47 35.4,31.7 	"/><linearGradient id="SVGID_3_" gradientUnits="userSpaceOnUse" x1="18.9304" y1="46.9867" x2="18.9304" y2="1.2001"><stop  offset="0" style="stop-color:#48E7BF"/><stop  offset="1" style="stop-color:#5427E6"/></linearGradient><polygon class="st4" points="26.7,1.2 11.2,16.5 11.2,47 26.7,31.7 	"/></g></svg>
